<svg class="ldi-q6ysyc" width="40px"  height="40px"  xmlns="http://www.w3.org/2000/svg" xmlns:xlink="http://www.w3.org/1999/xlink" viewBox="0 0 100 100" preserveAspectRatio="xMidYMid" style="background: none;"><!--?xml version="1.0" encoding="utf-8"?--><!--Generator: Adobe Illustrator 21.0.0, SVG Export Plug-In . SVG Version: 6.00 Build 0)--><svg version="1.1" id="圖層_1" xmlns="http://www.w3.org/2000/svg" xmlns:xlink="http://www.w3.org/1999/xlink" x="0px" y="0px" viewBox="0 0 100 100" style="transform-origin: 50px 50px 0px;" xml:space="preserve" class=""><g class="" style="transform-origin: 50px 50px 0px; transform: scale(0.92);"><g class="" style="transform-origin: 50px 50px 0px;"><style type="text/css" class="ld ld-tremble-px" style="transform-origin: 50px 50px 0px; animation-duration: 1s; animation-delay: -1s;">.st0{fill:#E0E0E0;} .st1{fill:#F5E6C8;} .st2{fill:none;stroke:#333333;stroke-width:4;stroke-miterlimit:10;} .st3{fill:#333333;} .st4{fill:#66503A;} .st5{fill:none;stroke:#333333;stroke-width:3.8931;stroke-linecap:round;stroke-linejoin:round;stroke-miterlimit:10;} .st6{fill:none;stroke:#849B87;stroke-width:7.7863;stroke-linecap:round;stroke-linejoin:round;stroke-miterlimit:10;} .st7{fill:#A0C8D7;} .st8{fill:#F5E6C8;stroke:#333333;stroke-width:4.0781;stroke-miterlimit:10;} .st9{fill:none;stroke:#333333;stroke-width:6.0232;stroke-miterlimit:10;} .st10{fill:#ABBD81;stroke:#849B87;stroke-width:4.0394;stroke-linejoin:round;stroke-miterlimit:10;} .st11{fill:#F5E6C8;stroke:#849B87;stroke-width:4;stroke-linejoin:round;stroke-miterlimit:10;} .st12{fill-rule:evenodd;clip-rule:evenodd;fill:#E0E0E0;} .st13{fill:#F47E60;} .st14{fill:none;stroke:#F47E60;stroke-width:5.6388;stroke-miterlimit:10;} .st15{fill:none;stroke:#E15B64;stroke-width:5.6388;stroke-miterlimit:10;} .st16{fill:#F8B26A;} .st17{fill:#77A4BD;} .st18{opacity:0.5;fill:#E15B64;} .st19{fill:#F5E6C8;stroke:#849B87;stroke-width:4.0394;stroke-linejoin:round;stroke-miterlimit:10;} .st20{fill:#E5756C;stroke:#E15B64;stroke-width:4.0394;stroke-linejoin:round;stroke-miterlimit:10;} .st21{fill-rule:evenodd;clip-rule:evenodd;fill:#E0E0E0;stroke:#E15B64;stroke-width:6.0232;stroke-miterlimit:10;} .st22{fill-rule:evenodd;clip-rule:evenodd;fill:#E15B64;stroke:#E15B64;stroke-width:3.7066;stroke-miterlimit:10;} .st23{fill:none;stroke:#333333;stroke-width:6.0232;stroke-linecap:round;stroke-miterlimit:10;} .st24{fill:#333333;stroke:#333333;stroke-width:4;stroke-linecap:round;stroke-linejoin:round;stroke-miterlimit:10;} .st25{fill:none;stroke:#333333;stroke-width:4.4736;stroke-linecap:round;stroke-miterlimit:10;} .st26{fill:#EC6551;} .st27{fill:none;stroke:#E15B64;stroke-width:8.7671;stroke-miterlimit:10;} .st28{fill:none;stroke:#333333;stroke-width:7.6;stroke-miterlimit:10;} .st29{fill:none;stroke:#E0E0E0;stroke-width:3;stroke-miterlimit:10;} .st30{fill:#E0E0E0;stroke:#333333;stroke-width:4.0781;stroke-miterlimit:10;} .st31{fill:none;stroke:#E15B64;stroke-width:4.0781;stroke-miterlimit:10;} .st32{fill:none;stroke:#333333;stroke-width:5.234;stroke-miterlimit:10;} .st33{fill:none;stroke:#E0E0E0;stroke-width:2.7915;stroke-miterlimit:10;} .st34{fill:#E15B64;} .st35{fill:none;stroke:#333333;stroke-width:4;stroke-linejoin:round;stroke-miterlimit:10;} .st36{fill:none;stroke:#849B87;stroke-width:7;stroke-linejoin:round;stroke-miterlimit:10;} .st37{fill:none;stroke:#E15B64;stroke-width:7;stroke-linejoin:round;stroke-miterlimit:10;} .st38{fill:none;stroke:#849B87;stroke-width:7;stroke-miterlimit:10;} .st39{fill:none;stroke:#E15B64;stroke-width:7;stroke-miterlimit:10;} .st40{fill:#323232;} .st41{fill:none;stroke:#333333;stroke-width:3.9264;stroke-linejoin:round;stroke-miterlimit:10;} .st42{fill:#A0C8D7;stroke:#333333;stroke-width:3.8931;stroke-linejoin:round;stroke-miterlimit:10;} .st43{fill:none;stroke:#FFFFFF;stroke-width:3.8931;stroke-linecap:round;stroke-linejoin:round;stroke-miterlimit:10;} .st44{fill:none;stroke:#333333;stroke-width:5;stroke-linecap:round;stroke-linejoin:round;stroke-miterlimit:10;} .st45{fill:#849B87;} .st46{fill:#A0C8D7;stroke:#333333;stroke-width:5;stroke-linejoin:round;stroke-miterlimit:10;} .st47{fill:#A0C8D7;stroke:#333333;stroke-width:3.8746;stroke-miterlimit:10;} .st48{fill:none;stroke:#333333;stroke-width:3.8746;stroke-miterlimit:10;} .st49{fill:none;stroke:#333333;stroke-width:7.7493;stroke-linecap:round;stroke-miterlimit:10;} .st50{fill:#FFFFFF;stroke:#333333;stroke-width:2.906;stroke-linecap:round;stroke-miterlimit:10;} .st51{fill:#FFFFFF;stroke:#333333;stroke-width:3.3211;stroke-linecap:round;stroke-miterlimit:10;} .st52{fill:none;stroke:#333333;stroke-width:3.3211;stroke-miterlimit:10;} .st53{fill:none;stroke:#849B87;stroke-width:3.3211;stroke-miterlimit:10;} .st54{fill:#666666;} .st55{fill:none;stroke:#333333;stroke-width:3.2552;stroke-miterlimit:10;} .st56{fill:none;stroke:#E15B64;stroke-width:2.1701;stroke-linecap:round;stroke-miterlimit:10;} .st57{fill:none;stroke:#E15B64;stroke-width:2;stroke-linecap:round;stroke-miterlimit:10;} .st58{fill:#ABBD81;} .st59{fill:none;stroke:#849B87;stroke-width:3;stroke-miterlimit:10;} .st60{fill:#E6E6E6;} .st61{fill:#E6E6E6;stroke:#333333;stroke-width:1.7333;stroke-miterlimit:10;} .st62{fill:none;stroke:#333333;stroke-width:1.7333;stroke-miterlimit:10;} .st63{fill:none;stroke:#849B87;stroke-width:2.0711;stroke-miterlimit:10;} .st64{fill:none;stroke:#333333;stroke-width:3.3;stroke-miterlimit:10;} .st65{fill:none;stroke:#E15B64;stroke-width:3.321;stroke-miterlimit:10;} .st66{fill:#CCCCCC;} .st67{fill:#B3B3B3;} .st68{fill:none;stroke:#A0C8D7;stroke-width:4;stroke-linecap:round;stroke-miterlimit:10;} .st69{fill:#FFFFFF;} .st70{fill:none;stroke:#A0C8D7;stroke-width:8;stroke-miterlimit:10;}</style><g class="ld ld-tremble-px" style="transform-origin: 50px 50px 0px; animation-duration: 1s; animation-delay: -0.9375s;"><polygon class="st0" points="80.201,7.5 19.799,7.5 19.799,92.5 57.842,92.5 80.201,70.141 " fill="#ffffff" style="fill: rgb(255, 255, 255);"></polygon></g><g class="ld ld-tremble-px" style="transform-origin: 50px 50px 0px; animation-duration: 1s; animation-delay: -0.875s;"><polygon class="st54" points="57.842,92.5 80.201,70.141 57.842,70.141 " fill="#e4e4e4" style="fill: rgb(228, 228, 228);"></polygon></g><g class="" style="transform-origin: 50px 50px 0px;"><g class="ld ld-tremble-px" style="transform-origin: 50px 50px 0px; animation-duration: 1s; animation-delay: -0.8125s;"><path class="st34" d="M52.056,46.37c0,0.244-0.047,0.474-0.139,0.688c-0.094,0.215-0.221,0.403-0.381,0.564 c-0.162,0.161-0.357,0.291-0.586,0.388c-0.23,0.098-0.477,0.146-0.74,0.146c-0.244,0-0.483-0.078-0.718-0.234 s-0.462-0.356-0.681-0.601c-0.221-0.244-0.431-0.52-0.631-0.828s-0.381-0.618-0.541-0.93c-0.162-0.313-0.306-0.61-0.433-0.894 s-0.229-0.518-0.308-0.703c-0.107-0.264-0.215-0.508-0.322-0.732s-0.22-0.513-0.337-0.864c-0.068-0.195-0.12-0.342-0.153-0.439 c-0.035-0.098-0.064-0.173-0.088-0.227c-0.025-0.054-0.045-0.098-0.059-0.132c-0.016-0.034-0.032-0.085-0.052-0.154 c-0.195,0.088-0.405,0.139-0.63,0.154s-0.474,0.022-0.747,0.022c-0.049,0-0.132,0.017-0.249,0.051s-0.252,0.076-0.402,0.125 c-0.152,0.049-0.309,0.1-0.469,0.154c-0.162,0.054-0.315,0.1-0.462,0.139c-0.469,0.117-0.977,0.229-1.523,0.337 s-1.118,0.212-1.714,0.315s-1.204,0.205-1.824,0.308s-1.242,0.208-1.867,0.315c-0.068,0.01-0.127,0.029-0.176,0.059 s-0.117,0.105-0.205,0.227s-0.22,0.31-0.396,0.564s-0.425,0.615-0.747,1.084c-0.371,0.537-0.723,1.003-1.055,1.399 s-0.645,0.735-0.938,1.018c-0.283,0.283-0.584,0.498-0.9,0.645c-0.318,0.146-0.647,0.22-0.989,0.22 c-0.449,0-0.85-0.056-1.201-0.168s-0.647-0.256-0.886-0.432c-0.24-0.176-0.421-0.366-0.543-0.571s-0.183-0.396-0.183-0.571 c0-0.332,0.142-0.564,0.425-0.696s0.674-0.242,1.172-0.33c0-0.01,0.054-0.083,0.161-0.22s0.234-0.293,0.381-0.469 s0.29-0.349,0.433-0.52c0.141-0.171,0.241-0.3,0.3-0.388c0.381-0.527,0.778-1.077,1.194-1.648c0.414-0.571,0.871-1.228,1.369-1.97 v0.015c0.254-0.371,0.461-0.679,0.623-0.923c0.16-0.244,0.314-0.474,0.461-0.688s0.301-0.435,0.461-0.659 c0.162-0.225,0.359-0.503,0.594-0.835c0.605-0.85,1.135-1.57,1.59-2.161c0.453-0.591,0.827-1.082,1.12-1.472 c0.352-0.547,0.684-1.069,0.996-1.567c0.137-0.215,0.269-0.432,0.396-0.652s0.249-0.432,0.366-0.637s0.222-0.398,0.315-0.579 c0.092-0.181,0.163-0.334,0.212-0.461c1.162-2.842,2.158-4.263,2.988-4.263c0.361,0,0.654,0.027,0.879,0.081 s0.397,0.146,0.521,0.278c0.121,0.132,0.205,0.305,0.248,0.52c0.045,0.215,0.066,0.483,0.066,0.806c0,0.303,0,0.54,0,0.71 s-0.005,0.32-0.015,0.447s-0.018,0.254-0.022,0.381S45,29.207,44.98,29.421c0.234,0.498,0.462,1.011,0.681,1.538 c0.221,0.527,0.428,1.05,0.623,1.567c0.039,0.117,0.125,0.364,0.256,0.74c0.133,0.376,0.288,0.818,0.469,1.326 s0.371,1.045,0.572,1.611c0.199,0.566,0.385,1.099,0.557,1.597c0.17,0.498,0.319,0.928,0.446,1.289s0.21,0.591,0.249,0.688 c0.127,0.547,0.483,1.45,1.069,2.71c0.078,0.156,0.144,0.293,0.198,0.41c0.053,0.117,0.117,0.239,0.189,0.366 c0.074,0.127,0.169,0.273,0.286,0.439s0.273,0.381,0.469,0.645C51.719,45.266,52.056,45.94,52.056,46.37z M42.271,38.987 c0.43-0.107,0.866-0.22,1.311-0.337s0.857-0.234,1.238-0.352c-0.156-0.479-0.317-0.977-0.483-1.494s-0.34-1.033-0.521-1.545 s-0.363-1.011-0.549-1.494s-0.381-0.925-0.586-1.326c-0.83,1.133-1.662,2.324-2.498,3.574c-0.834,1.25-1.628,2.524-2.38,3.823 c0.293-0.029,0.601-0.051,0.923-0.066s0.581-0.051,0.776-0.11c0.264-0.078,0.5-0.146,0.71-0.205s0.42-0.112,0.631-0.161 c0.209-0.049,0.427-0.098,0.651-0.146S41.978,39.045,42.271,38.987z" fill="rgb(225, 91, 100)" style="fill: rgb(225, 91, 100);"></path></g><g class="ld ld-tremble-px" style="transform-origin: 50px 50px 0px; animation-duration: 1s; animation-delay: -0.75s;"><path class="st34" d="M68.638,40.437c-0.273,0.361-0.854,0.542-1.743,0.542c-0.068,0-0.225-0.01-0.469-0.029 s-0.508-0.044-0.791-0.073s-0.555-0.054-0.813-0.073s-0.432-0.029-0.52-0.029h-2.153c-0.049,0.186-0.091,0.405-0.124,0.659 c-0.035,0.254-0.052,0.542-0.052,0.864c0,0.752-0.005,1.333-0.015,1.743s-0.02,0.713-0.029,0.908s-0.02,0.313-0.029,0.352 s-0.015,0.063-0.015,0.073c0,0.439-0.095,0.747-0.286,0.923c-0.189,0.176-0.544,0.264-1.062,0.264 c-0.313,0-0.569-0.024-0.769-0.073c-0.201-0.049-0.357-0.132-0.469-0.249c-0.113-0.117-0.191-0.271-0.234-0.461 c-0.045-0.19-0.066-0.422-0.066-0.696c0-0.166,0.015-0.359,0.044-0.579s0.065-0.496,0.11-0.828c0.043-0.332,0.09-0.732,0.139-1.201 s0.098-1.04,0.146-1.714H59.16c-0.156,0-0.329,0.002-0.521,0.007c-0.189,0.005-0.388,0.012-0.593,0.022s-0.41,0.017-0.615,0.022 s-0.4,0.007-0.586,0.007l-1.553,0.161c-0.205,0-0.4-0.037-0.586-0.11s-0.35-0.173-0.491-0.3s-0.256-0.273-0.344-0.439 s-0.132-0.342-0.132-0.527c0-0.107,0.029-0.239,0.088-0.396s0.142-0.303,0.249-0.439s0.236-0.254,0.389-0.352 c0.15-0.098,0.319-0.146,0.505-0.146c0.146,0,0.319,0.005,0.521,0.015c0.199,0.01,0.395,0.022,0.586,0.037 c0.189,0.015,0.355,0.029,0.498,0.044c0.141,0.015,0.222,0.022,0.241,0.022h2.358l0.483-0.059c0.02-0.107,0.034-0.22,0.044-0.337 s0.015-0.229,0.015-0.337c0-0.225-0.007-0.474-0.022-0.747c-0.014-0.273-0.036-0.591-0.065-0.952 c-0.02-0.264-0.036-0.488-0.052-0.674c-0.014-0.186-0.024-0.342-0.029-0.469s-0.01-0.229-0.014-0.308 c-0.006-0.078-0.008-0.142-0.008-0.19c0-0.098,0.01-0.278,0.029-0.542s0.078-0.535,0.176-0.813s0.256-0.525,0.477-0.74 c0.219-0.215,0.524-0.322,0.915-0.322c0.4,0,0.732,0.229,0.996,0.688c0.225,0.371,0.337,0.679,0.337,0.923 c0,0.215-0.013,0.508-0.037,0.879s-0.054,0.742-0.088,1.113s-0.063,0.71-0.088,1.018s-0.036,0.51-0.036,0.608v0.469 c0,0.098,0,0.19,0,0.278s0.01,0.205,0.029,0.352c0.137,0.01,0.298,0.015,0.483,0.015s0.4,0,0.645,0c0.127,0,0.29-0.002,0.49-0.007 s0.423-0.012,0.667-0.022s0.503-0.017,0.776-0.022s0.547-0.007,0.82-0.007c0.547,0,0.993,0.034,1.34,0.103s0.615,0.183,0.807,0.344 c0.189,0.161,0.319,0.369,0.388,0.623s0.103,0.566,0.103,0.938L68.638,40.437z" fill="rgb(225, 91, 100)" style="fill: rgb(225, 91, 100);"></path></g></g><g class="ld ld-tremble-px" style="transform-origin: 50px 50px 0px; animation-duration: 1s; animation-delay: -0.6875s;"><path class="st57" d="M36.81,57.014c11.579-4.026,23.759-6.315,36.009-6.767" stroke="rgb(225, 91, 100)" style="stroke: rgb(225, 91, 100);"></path></g><metadata xmlns:d="https://loading.io/stock/" class="ld ld-tremble-px" style="transform-origin: 50px 50px 0px; animation-duration: 1s; animation-delay: -0.625s;">
<d:name class="ld ld-tremble-px" style="transform-origin: 50px 50px 0px; animation-duration: 1s; animation-delay: -0.5625s;">exam</d:name>
<d:tags class="ld ld-tremble-px" style="transform-origin: 50px 50px 0px; animation-duration: 1s; animation-delay: -0.5s;">exam,score,test,evaluation,grade,gpa,school,college</d:tags>
<d:license class="ld ld-tremble-px" style="transform-origin: 50px 50px 0px; animation-duration: 1s; animation-delay: -0.4375s;">cc-by</d:license>
<d:slug class="ld ld-tremble-px" style="transform-origin: 50px 50px 0px; animation-duration: 1s; animation-delay: -0.375s;">q6ysyc</d:slug>
</metadata></g></g><style type="text/css" class="ld ld-tremble-px" style="transform-origin: 50px 50px 0px; animation-duration: 1s; animation-delay: -0.3125s;">path,ellipse,circle,rect,polygon,polyline,line { stroke-width: 0; }@keyframes ld-tremble-px {
  0% {
    -webkit-transform: translate(1px, 1px);
    transform: translate(1px, 1px);
  }
  5% {
    -webkit-transform: translate(0, 1px);
    transform: translate(0, 1px);
  }
  10% {
    -webkit-transform: translate(1px, 2px);
    transform: translate(1px, 2px);
  }
  15% {
    -webkit-transform: translate(2px, 1px);
    transform: translate(2px, 1px);
  }
  20% {
    -webkit-transform: translate(3px, 0);
    transform: translate(3px, 0);
  }
  25% {
    -webkit-transform: translate(1px, 2px);
    transform: translate(1px, 2px);
  }
  30% {
    -webkit-transform: translate(1px, 3px);
    transform: translate(1px, 3px);
  }
  35% {
    -webkit-transform: translate(0, 1px);
    transform: translate(0, 1px);
  }
  40% {
    -webkit-transform: translate(1px, 1px);
    transform: translate(1px, 1px);
  }
  45% {
    -webkit-transform: translate(1px, 0);
    transform: translate(1px, 0);
  }
  50% {
    -webkit-transform: translate(2px, 1px);
    transform: translate(2px, 1px);
  }
  55% {
    -webkit-transform: translate(1px, 2px);
    transform: translate(1px, 2px);
  }
  60% {
    -webkit-transform: translate(3px, 1px);
    transform: translate(3px, 1px);
  }
  65% {
    -webkit-transform: translate(0, 2px);
    transform: translate(0, 2px);
  }
  70% {
    -webkit-transform: translate(3px, 0);
    transform: translate(3px, 0);
  }
  75% {
    -webkit-transform: translate(0, 0);
    transform: translate(0, 0);
  }
  80% {
    -webkit-transform: translate(2px, 3px);
    transform: translate(2px, 3px);
  }
  85% {
    -webkit-transform: translate(1px, 0);
    transform: translate(1px, 0);
  }
  90% {
    -webkit-transform: translate(0, 2px);
    transform: translate(0, 2px);
  }
  95% {
    -webkit-transform: translate(3px, 2px);
    transform: translate(3px, 2px);
  }
}
@-webkit-keyframes ld-tremble-px {
  0% {
    -webkit-transform: translate(1px, 1px);
    transform: translate(1px, 1px);
  }
  5% {
    -webkit-transform: translate(0, 1px);
    transform: translate(0, 1px);
  }
  10% {
    -webkit-transform: translate(1px, 2px);
    transform: translate(1px, 2px);
  }
  15% {
    -webkit-transform: translate(2px, 1px);
    transform: translate(2px, 1px);
  }
  20% {
    -webkit-transform: translate(3px, 0);
    transform: translate(3px, 0);
  }
  25% {
    -webkit-transform: translate(1px, 2px);
    transform: translate(1px, 2px);
  }
  30% {
    -webkit-transform: translate(1px, 3px);
    transform: translate(1px, 3px);
  }
  35% {
    -webkit-transform: translate(0, 1px);
    transform: translate(0, 1px);
  }
  40% {
    -webkit-transform: translate(1px, 1px);
    transform: translate(1px, 1px);
  }
  45% {
    -webkit-transform: translate(1px, 0);
    transform: translate(1px, 0);
  }
  50% {
    -webkit-transform: translate(2px, 1px);
    transform: translate(2px, 1px);
  }
  55% {
    -webkit-transform: translate(1px, 2px);
    transform: translate(1px, 2px);
  }
  60% {
    -webkit-transform: translate(3px, 1px);
    transform: translate(3px, 1px);
  }
  65% {
    -webkit-transform: translate(0, 2px);
    transform: translate(0, 2px);
  }
  70% {
    -webkit-transform: translate(3px, 0);
    transform: translate(3px, 0);
  }
  75% {
    -webkit-transform: translate(0, 0);
    transform: translate(0, 0);
  }
  80% {
    -webkit-transform: translate(2px, 3px);
    transform: translate(2px, 3px);
  }
  85% {
    -webkit-transform: translate(1px, 0);
    transform: translate(1px, 0);
  }
  90% {
    -webkit-transform: translate(0, 2px);
    transform: translate(0, 2px);
  }
  95% {
    -webkit-transform: translate(3px, 2px);
    transform: translate(3px, 2px);
  }
}
.ld.ld-tremble-px {
  -webkit-animation: ld-tremble-px 1s infinite;
  animation: ld-tremble-px 1s infinite;
}
</style></svg></svg>